HIERARCHY
ROOT Hips
{
	OFFSET 0.00 0.00 0.00
	CHANNELS 6 Xposition Yposition Zposition Xrotation Yrotation Zrotation
	JOINT Spine
	{
		OFFSET 0.00000 1.92919 2.89379
		CHANNELS 3 Xrotation Yrotation Zrotation
		JOINT Spine1
		{
			OFFSET 0.00000 0.67000 3.79977
			CHANNELS 3 Xrotation Yrotation Zrotation
			JOINT Spine2
			{
				OFFSET 0.00000 0.33628 3.84370
				CHANNELS 3 Xrotation Yrotation Zrotation
				JOINT Spine3
				{
					OFFSET 0.00000 0.00000 3.85838
					CHANNELS 3 Xrotation Yrotation Zrotation
					JOINT Neck
					{
						OFFSET 0.00000 -1.44688 10.12826
						CHANNELS 3 Xrotation Yrotation Zrotation
						JOINT Head
						{
							OFFSET 0.00000 -0.92125 5.22468
							CHANNELS 3 Xrotation Yrotation Zrotation
							End Site
							{
								OFFSET 0.00000 0.00001 6.24576
							}
						}
					}
					JOINT RightShoulder
					{
						OFFSET -1.19724 -1.99539 6.46510
						CHANNELS 3 Xrotation Yrotation Zrotation
						JOINT RightArm
						{
							OFFSET -5.94629 0.00000 0.00000
							CHANNELS 3 Xrotation Yrotation Zrotation
							JOINT RightForeArm
							{
								OFFSET -11.02134 0.00000 0.00000
								CHANNELS 3 Xrotation Yrotation Zrotation
								JOINT RightHand
								{
									OFFSET -10.43440 0.00000 0.00000
									CHANNELS 3 Xrotation Yrotation Zrotation
									JOINT RightHandEnd
									{
										OFFSET -2.82937 0.00000 0.00000
										CHANNELS 3 Xrotation Yrotation Zrotation
										End Site
										{
											OFFSET -2.82937 0.00000 0.00000
										}
									}
									JOINT RightHandThumb1
									{
										OFFSET -1.13175 -1.88625 -0.75450
										CHANNELS 3 Yrotation Xrotation Zrotation
										End Site
										{
											OFFSET -2.73296 -0.73229 0.00000
										}
									}
								}
							}
						}
					}
					JOINT LeftShoulder
					{
						OFFSET 1.19724 -1.99539 6.46510
						CHANNELS 3 Xrotation Yrotation Zrotation
						JOINT LeftArm
						{
							OFFSET 5.94629 0.00000 0.00000
							CHANNELS 3 Xrotation Yrotation Zrotation
							JOINT LeftForeArm
							{
								OFFSET 11.02134 0.00000 0.00000
								CHANNELS 3 Xrotation Yrotation Zrotation
								JOINT LeftHand
								{
									OFFSET 10.43440 0.00000 0.00000
									CHANNELS 3 Xrotation Yrotation Zrotation
									JOINT LeftHandEnd
									{
										OFFSET 2.82937 0.00000 0.00000
										CHANNELS 3 Xrotation Yrotation Zrotation
										End Site
										{
											OFFSET 2.82937 0.00000 0.00000
										}
									}
									JOINT LeftHandThumb1
									{
										OFFSET 1.13175 -1.88625 -0.75450
										CHANNELS 3 Yrotation Xrotation Zrotation
										End Site
										{
											OFFSET 2.73296 -0.73229 0.00000
										}
									}
								}
							}
						}
					}
				}
			}
		}
	}
	JOINT RightUpLeg
	{
		OFFSET -3.55181 0.00000 -1.03761
		CHANNELS 3 Xrotation Yrotation Zrotation
		JOINT RightLeg
		{
			OFFSET 0.00001 0.00000 -15.86106
			CHANNELS 3 Xrotation Yrotation Zrotation
			JOINT RightFoot
			{
				OFFSET 0.00001 0.00000 -16.30493
				CHANNELS 3 Xrotation Yrotation Zrotation
				JOINT RightToeBase
				{
					OFFSET 0.00000 -5.76215 -2.09725
					CHANNELS 3 Xrotation Yrotation Zrotation
					End Site
					{
						OFFSET 0.00000 -2.87338 -0.00000
					}
				}
			}
		}
	}
	JOINT LeftUpLeg
	{
		OFFSET 3.55181 0.00000 -1.03761
		CHANNELS 3 Xrotation Yrotation Zrotation
		JOINT LeftLeg
		{
			OFFSET 0.00001 0.00000 -15.86106
			CHANNELS 3 Xrotation Yrotation Zrotation
			JOINT LeftFoot
			{
				OFFSET 0.00001 0.00000 -16.30493
				CHANNELS 3 Xrotation Yrotation Zrotation
				JOINT LeftToeBase
				{
					OFFSET 0.00000 -5.76215 -2.09725
					CHANNELS 3 Xrotation Yrotation Zrotation
					End Site
					{
						OFFSET 0.00000 -2.87338 -0.00000
					}
				}
			}
		}
	}
}
MOTION
Frames: 9
Frame Time: 0.008342
 -11.0897 -30.5532 36.2356 3.4844 -3.3495 92.4177 0.4700 3.8556 0.6837 -1.0283 0.2285 0.0076 7.6591 -0.9217 -0.9492 2.2730 -0.7124 0.3938 4.8251 -1.2393 3.6922 -0.0500 3.4391 9.6411 3.7547 7.2687 -3.1226 -2.1194 -18.9192 12.8422 0.0000 0.0000 0.3162 -17.1710 4.7209 -1.8529 0.0000 0.0000 -0.0000 0.0000 0.0000 0.0000 2.0812 -8.0431 2.6643 7.7548 8.6747 -13.9890 -0.0000 0.0000 0.3470 -18.2337 -0.2833 4.1985 0.0000 -0.0000 0.0000 -0.0000 0.0000 -0.0000 3.2390 1.7920 -35.9855 7.2072 0.0000 0.0000 -6.9831 3.3529 6.7462 0.0763 0.0000 0.0000 1.9886 4.4719 28.0546 9.2524 0.0000 0.0000 -1.1084 -3.0067 -11.1521 -11.5515 0.0000 -0.0000
 -11.0892 -30.5538 36.2356 3.4866 -3.3539 92.4225 0.4714 3.8610 0.6824 -1.0278 0.2298 0.0077 7.6578 -0.9234 -0.9503 2.2743 -0.7095 0.3895 4.8402 -1.2322 3.6755 -0.0446 3.4445 9.6013 3.7514 7.2586 -3.1156 -2.1153 -18.9070 12.8493 0.0000 0.0000 0.3292 -17.1761 4.7505 -1.8387 -0.0000 -0.0000 0.0000 -0.0000 -0.0000 0.0000 2.0845 -8.0472 2.6724 7.7759 8.6441 -14.0069 -0.0000 0.0000 0.3419 -18.2326 -0.2948 4.1956 -0.0000 0.0000 -0.0000 0.0000 0.0000 0.0000 3.2448 1.7925 -35.9857 7.2075 0.0000 0.0000 -6.9848 3.3543 6.7433 0.0705 0.0000 0.0000 1.9948 4.4736 28.0427 9.2494 0.0000 0.0000 -1.1056 -3.0066 -11.1461 -11.5519 0.0000 -0.0000
 -11.0888 -30.5547 36.2356 3.4892 -3.3564 92.4276 0.4709 3.8658 0.6820 -1.0284 0.2321 0.0076 7.6567 -0.9227 -0.9540 2.2762 -0.7081 0.3884 4.8583 -1.2205 3.6522 -0.0370 3.4487 9.5480 3.7464 7.2472 -3.1092 -2.1124 -18.8941 12.8573 0.0000 0.0000 0.3481 -17.1839 4.7876 -1.8202 -0.0000 0.0000 -0.0000 0.0000 0.0000 -0.0000 2.0840 -8.0499 2.6756 7.8012 8.6050 -14.0222 -0.0000 0.0000 0.3307 -18.2341 -0.3114 4.1891 0.0000 0.0000 -0.0000 -0.0000 0.0000 -0.0000 3.2483 1.7928 -35.9824 7.2079 0.0000 0.0000 -6.9868 3.3577 6.7371 0.0630 0.0000 0.0000 1.9983 4.4757 28.0267 9.2471 0.0000 0.0000 -1.1026 -3.0063 -11.1361 -11.5519 0.0000 -0.0000
 -11.0882 -30.5557 36.2355 3.4946 -3.3626 92.4332 0.4728 3.8736 0.6819 -1.0284 0.2342 0.0085 7.6554 -0.9223 -0.9577 2.2783 -0.7050 0.3853 4.8793 -1.2070 3.6234 -0.0261 3.4532 9.4831 3.7404 7.2341 -3.0997 -2.1121 -18.8803 12.8636 0.0000 0.0000 0.3737 -17.1919 4.8262 -1.8008 0.0000 -0.0000 0.0000 0.0000 -0.0000 -0.0000 2.0874 -8.0540 2.6835 7.8263 8.5595 -14.0451 -0.0000 0.0000 0.3186 -18.2412 -0.3320 4.1767 -0.0000 -0.0000 0.0000 0.0000 -0.0000 0.0000 3.2559 1.7960 -35.9808 7.2093 0.0000 0.0000 -6.9912 3.3627 6.7327 0.0542 0.0000 0.0000 2.0083 4.4816 28.0083 9.2400 0.0000 0.0000 -1.0969 -3.0049 -11.1237 -11.5519 0.0000 -0.0000
 -11.0879 -30.5572 36.2354 3.4974 -3.3632 92.4396 0.4689 3.8775 0.6820 -1.0305 0.2380 0.0077 7.6568 -0.9201 -0.9600 2.2807 -0.7031 0.3840 4.9015 -1.1890 3.5889 -0.0134 3.4554 9.4049 3.7355 7.2211 -3.0934 -2.1152 -18.8686 12.8729 0.0000 0.0000 0.4031 -17.2015 4.8696 -1.7792 -0.0000 -0.0000 -0.0000 0.0000 0.0000 0.0000 2.0843 -8.0576 2.6824 7.8547 8.5100 -14.0605 -0.0000 0.0000 0.2986 -18.2500 -0.3606 4.1601 0.0000 -0.0000 0.0000 -0.0000 0.0000 0.0000 3.2576 1.7950 -35.9723 7.2086 0.0000 0.0000 -6.9932 3.3689 6.7206 0.0431 0.0000 0.0000 2.0092 4.4834 27.9873 9.2384 0.0000 0.0000 -1.0942 -3.0043 -11.1090 -11.5517 0.0000 -0.0000
 -11.0875 -30.5587 36.2353 3.5034 -3.3649 92.4470 0.4652 3.8865 0.6806 -1.0321 0.2403 0.0088 7.6579 -0.9194 -0.9630 2.2838 -0.6996 0.3807 4.9237 -1.1687 3.5515 0.0021 3.4566 9.3178 3.7296 7.2073 -3.0840 -2.1196 -18.8569 12.8826 0.0000 0.0000 0.4360 -17.2128 4.9107 -1.7565 0.0000 -0.0000 0.0000 0.0000 0.0000 0.0000 2.0896 -8.0599 2.6930 7.8767 8.4540 -14.0908 -0.0000 0.0000 0.2813 -18.2633 -0.3905 4.1384 -0.0000 0.0000 -0.0000 0.0000 0.0000 0.0000 3.2607 1.7972 -35.9654 7.2081 0.0000 0.0000 -6.9976 3.3775 6.7097 0.0319 0.0000 0.0000 2.0125 4.4897 27.9592 9.2334 0.0000 0.0000 -1.0888 -3.0026 -11.0875 -11.5520 0.0000 -0.0000
 -11.0872 -30.5601 36.2351 3.5112 -3.3676 92.4534 0.4619 3.8953 0.6807 -1.0335 0.2429 0.0093 7.6594 -0.9172 -0.9646 2.2870 -0.6956 0.3774 4.9462 -1.1460 3.5100 0.0197 3.4562 9.2230 3.7232 7.1938 -3.0740 -2.1246 -18.8465 12.8913 0.0000 0.0000 0.4725 -17.2252 4.9484 -1.7355 -0.0000 -0.0000 -0.0000 0.0000 0.0000 -0.0000 2.0930 -8.0619 2.6991 7.8981 8.3971 -14.1165 -0.0000 0.0000 0.2581 -18.2779 -0.4257 4.1145 0.0000 0.0000 0.0000 -0.0000 0.0000 -0.0000 3.2641 1.8020 -35.9598 7.2098 0.0000 0.0000 -7.0042 3.3871 6.7011 0.0206 0.0000 0.0000 2.0184 4.4989 27.9307 9.2252 0.0000 0.0000 -1.0820 -3.0004 -11.0641 -11.5527 0.0000 -0.0000
 -11.0869 -30.5618 36.2349 3.5185 -3.3691 92.4604 0.4569 3.9031 0.6800 -1.0363 0.2457 0.0099 7.6640 -0.9150 -0.9654 2.2899 -0.6917 0.3746 4.9671 -1.1219 3.4666 0.0383 3.4550 9.1216 3.7192 7.1804 -3.0651 -2.1314 -18.8374 12.9020 0.0000 0.0000 0.5087 -17.2374 4.9805 -1.7152 -0.0000 0.0000 0.0000 -0.0000 -0.0000 0.0000 2.0967 -8.0629 2.7041 7.9189 8.3396 -14.1441 -0.0000 0.0000 0.2350 -18.2937 -0.4625 4.0853 0.0000 0.0000 -0.0000 0.0000 0.0000 0.0000 3.2671 1.8050 -35.9516 7.2089 0.0000 0.0000 -7.0096 3.3972 6.6892 0.0098 0.0000 0.0000 2.0223 4.5075 27.8968 9.2178 0.0000 0.0000 -1.0756 -2.9980 -11.0354 -11.5545 0.0000 -0.0000
 -11.0868 -30.5634 36.2348 3.5267 -3.3708 92.4666 0.4521 3.9104 0.6801 -1.0392 0.2484 0.0104 7.6687 -0.9119 -0.9650 2.2931 -0.6875 0.3719 4.9862 -1.0963 3.4218 0.0571 3.4521 9.0176 3.7151 7.1678 -3.0561 -2.1373 -18.8303 12.9123 0.0000 0.0000 0.5450 -17.2478 5.0063 -1.6988 0.0000 0.0000 -0.0000 -0.0000 0.0000 0.0000 2.1002 -8.0628 2.7065 7.9377 8.2839 -14.1691 -0.0000 0.0000 0.2090 -18.3077 -0.5012 4.0567 0.0000 0.0000 0.0000 0.0000 -0.0000 0.0000 3.2695 1.8095 -35.9449 7.2093 0.0000 0.0000 -7.0164 3.4078 6.6794 0.0004 -0.0000 0.0000 2.0270 4.5182 27.8609 9.2083 0.0000 0.0000 -1.0682 -2.9955 -11.0035 -11.5574 0.0000 -0.0000
